HIERARCHY
ROOT Hips
{
    OFFSET   0.000000   0.000000   0.000000
    CHANNELS 6 Xposition Yposition Zposition Zrotation Xrotation Yrotation
    JOINT Chest
    {
        OFFSET   0.000000   8.007230   0.000000
        CHANNELS 3 Zrotation Xrotation Yrotation
        JOINT Chest2
        {
            OFFSET   0.000000  22.077100   0.000000
            CHANNELS 3 Zrotation Xrotation Yrotation
            JOINT Neck
            {
                OFFSET   0.000000  23.254800  -0.000021
                CHANNELS 3 Zrotation Xrotation Yrotation
                JOINT Head
                {
                    OFFSET   0.000000  14.370000   1.956610
                    CHANNELS 3 Zrotation Xrotation Yrotation
                    End Site
                    {
                        OFFSET   0.000000  19.566000   0.000000
                    }
                }
            }
            JOINT LeftCollar
            {
                OFFSET   3.911900  19.017000  -0.467063
                CHANNELS 3 Zrotation Xrotation Yrotation
                JOINT LeftShoulder
                {
                    OFFSET  10.383700   0.000000   0.000000
                    CHANNELS 3 Zrotation Xrotation Yrotation
                    JOINT LeftElbow
                    {
                        OFFSET  26.662100   0.001529   0.000325
                        CHANNELS 3 Zrotation Xrotation Yrotation
                        JOINT LeftWrist
                        {
                            OFFSET  28.869000  -0.000011  -0.000096
                            CHANNELS 3 Zrotation Xrotation Yrotation
                            JOINT LeftFinger0
                            {
                                OFFSET   2.044650  -2.323460   3.252850
                                CHANNELS 3 Zrotation Xrotation Yrotation
                                JOINT LeftFinger01
                                {
                                    OFFSET   3.088130   0.000000   0.000000
                                    CHANNELS 3 Zrotation Xrotation Yrotation
                                    JOINT LeftFinger02
                                    {
                                        OFFSET   2.639460   0.000000   0.000000
                                        CHANNELS 3 Zrotation Xrotation Yrotation
                                        End Site
                                        {
                                            OFFSET   2.582190   0.000000   0.000000
                                        }
                                    }
                                }
                            }
                            JOINT LeftFinger1
                            {
                                OFFSET   8.364480   0.000000   3.252850
                                CHANNELS 3 Zrotation Xrotation Yrotation
                                JOINT LeftFinger11
                                {
                                    OFFSET   4.646930   0.000000   0.000000
                                    CHANNELS 3 Zrotation Xrotation Yrotation
                                    JOINT LeftFinger12
                                    {
                                        OFFSET   2.323460   0.000000   0.000000
                                        CHANNELS 3 Zrotation Xrotation Yrotation
                                        End Site
                                        {
                                            OFFSET   2.273050   0.000000   0.000000
                                        }
                                    }
                                }
                            }
                            JOINT LeftFinger2
                            {
                                OFFSET   8.364480   0.000016   1.078090
                                CHANNELS 3 Zrotation Xrotation Yrotation
                                JOINT LeftFinger21
                                {
                                    OFFSET   5.111620   0.000000   0.000000
                                    CHANNELS 3 Zrotation Xrotation Yrotation
                                    JOINT LeftFinger22
                                    {
                                        OFFSET   2.788160   0.000017   0.000000
                                        CHANNELS 3 Zrotation Xrotation Yrotation
                                        End Site
                                        {
                                            OFFSET   2.727660   0.000000   0.000000
                                        }
                                    }
                                }
                            }
                            JOINT LeftFinger3
                            {
                                OFFSET   7.899780   0.000015  -1.078090
                                CHANNELS 3 Zrotation Xrotation Yrotation
                                JOINT LeftFinger31
                                {
                                    OFFSET   4.646920   0.000000   0.000000
                                    CHANNELS 3 Zrotation Xrotation Yrotation
                                    JOINT LeftFinger32
                                    {
                                        OFFSET   2.323470   0.000000   0.000000
                                        CHANNELS 3 Zrotation Xrotation Yrotation
                                        End Site
                                        {
                                            OFFSET   2.273050   0.000000   0.000000
                                        }
                                    }
                                }
                            }
                            JOINT LeftFinger4
                            {
                                OFFSET   7.435090   0.000000  -3.252850
                                CHANNELS 3 Zrotation Xrotation Yrotation
                                JOINT LeftFinger41
                                {
                                    OFFSET   3.717550   0.000000   0.000000
                                    CHANNELS 3 Zrotation Xrotation Yrotation
                                    JOINT LeftFinger42
                                    {
                                        OFFSET   1.858760   0.000000   0.000000
                                        CHANNELS 3 Zrotation Xrotation Yrotation
                                        End Site
                                        {
                                            OFFSET   1.818440   0.000000   0.000000
                                        }
                                    }
                                }
                            }
                        }
                    }
                }
            }
            JOINT RightCollar
            {
                OFFSET  -3.911900  19.017000  -0.467062
                CHANNELS 3 Zrotation Xrotation Yrotation
                JOINT RightShoulder
                {
                    OFFSET -10.383700   0.000015   0.000000
                    CHANNELS 3 Zrotation Xrotation Yrotation
                    JOINT RightElbow
                    {
                        OFFSET -26.662100   0.001341   0.000385
                        CHANNELS 3 Zrotation Xrotation Yrotation
                        JOINT RightWrist
                        {
                            OFFSET -28.869000   0.000025  -0.000080
                            CHANNELS 3 Zrotation Xrotation Yrotation
                            JOINT RightFinger0
                            {
                                OFFSET  -2.044650  -2.323490   3.252850
                                CHANNELS 3 Zrotation Xrotation Yrotation
                                JOINT RightFinger01
                                {
                                    OFFSET  -3.088130   0.000000   0.000000
                                    CHANNELS 3 Zrotation Xrotation Yrotation
                                    JOINT RightFinger02
                                    {
                                        OFFSET  -2.639460   0.000000   0.000000
                                        CHANNELS 3 Zrotation Xrotation Yrotation
                                        End Site
                                        {
                                            OFFSET  -2.582190   0.000000   0.000000
                                        }
                                    }
                                }
                            }
                            JOINT RightFinger1
                            {
                                OFFSET  -8.364480   0.000000   3.252850
                                CHANNELS 3 Zrotation Xrotation Yrotation
                                JOINT RightFinger11
                                {
                                    OFFSET  -4.646930   0.000000   0.000000
                                    CHANNELS 3 Zrotation Xrotation Yrotation
                                    JOINT RightFinger12
                                    {
                                        OFFSET  -2.323470   0.000000   0.000000
                                        CHANNELS 3 Zrotation Xrotation Yrotation
                                        End Site
                                        {
                                            OFFSET  -2.273050   0.000000   0.000000
                                        }
                                    }
                                }
                            }
                            JOINT RightFinger2
                            {
                                OFFSET  -8.364480   0.000000   1.078090
                                CHANNELS 3 Zrotation Xrotation Yrotation
                                JOINT RightFinger21
                                {
                                    OFFSET  -5.111610   0.000000   0.000000
                                    CHANNELS 3 Zrotation Xrotation Yrotation
                                    JOINT RightFinger22
                                    {
                                        OFFSET  -2.788160   0.000000   0.000000
                                        CHANNELS 3 Zrotation Xrotation Yrotation
                                        End Site
                                        {
                                            OFFSET  -2.727660   0.000000   0.000000
                                        }
                                    }
                                }
                            }
                            JOINT RightFinger3
                            {
                                OFFSET  -7.899780   0.000000  -1.078090
                                CHANNELS 3 Zrotation Xrotation Yrotation
                                JOINT RightFinger31
                                {
                                    OFFSET  -4.646920   0.000000   0.000000
                                    CHANNELS 3 Zrotation Xrotation Yrotation
                                    JOINT RightFinger32
                                    {
                                        OFFSET  -2.323470   0.000000   0.000000
                                        CHANNELS 3 Zrotation Xrotation Yrotation
                                        End Site
                                        {
                                            OFFSET  -2.273050   0.000000   0.000000
                                        }
                                    }
                                }
                            }
                            JOINT RightFinger4
                            {
                                OFFSET  -7.435090   0.000000  -3.252850
                                CHANNELS 3 Zrotation Xrotation Yrotation
                                JOINT RightFinger41
                                {
                                    OFFSET  -3.717550   0.000000   0.000000
                                    CHANNELS 3 Zrotation Xrotation Yrotation
                                    JOINT RightFinger42
                                    {
                                        OFFSET  -1.858770   0.000000   0.000000
                                        CHANNELS 3 Zrotation Xrotation Yrotation
                                        End Site
                                        {
                                            OFFSET  -1.818440   0.000000   0.000000
                                        }
                                    }
                                }
                            }
                        }
                    }
                }
            }
        }
    }
    JOINT LeftHip
    {
        OFFSET   9.783010   0.000000   0.000000
        CHANNELS 3 Zrotation Xrotation Yrotation
        JOINT LeftKnee
        {
            OFFSET   0.000070 -41.789100   0.000028
            CHANNELS 3 Zrotation Xrotation Yrotation
            JOINT LeftAnkle
            {
                OFFSET   0.000087 -41.133200  -0.000100
                CHANNELS 3 Zrotation Xrotation Yrotation
                JOINT LeftToe
                {
                    OFFSET   0.000000  -6.358960  14.674500
                    CHANNELS 3 Zrotation Xrotation Yrotation
                    End Site
                    {
                        OFFSET   0.000000   0.000000   3.913200
                    }
                }
            }
        }
    }
    JOINT RightHip
    {
        OFFSET  -9.783020   0.000000   0.000000
        CHANNELS 3 Zrotation Xrotation Yrotation
        JOINT RightKnee
        {
            OFFSET   0.000044 -41.789100  -0.000870
            CHANNELS 3 Zrotation Xrotation Yrotation
            JOINT RightAnkle
            {
                OFFSET  -0.000090 -41.133200  -0.000245
                CHANNELS 3 Zrotation Xrotation Yrotation
                JOINT RightToe
                {
                    OFFSET   0.000000  -6.358960  14.674500
                    CHANNELS 3 Zrotation Xrotation Yrotation
                    End Site
                    {
                        OFFSET   0.000000   0.000000   3.913200
                    }
                }
            }
        }
    }
}
MOTION
Frames: 4
Frame Time:   0.016667
 -1.543540  89.760100  -0.471427   0.365948 -21.836000   5.484640  -1.699360  11.122200   0.841437  -3.675740  22.212100   2.086970   7.863720   2.909010  -0.403923  13.003900   5.564670 -43.169100   3.444600   0.117466   6.025570 -46.535600  28.913400 -77.461700   0.560115  -4.155050 -127.577000  48.937500   7.935040 -21.750800  36.172300  27.723300 -64.482900 -29.991100  -0.012665  -0.007247  -9.995550  -0.007485  -0.016867 -43.101000  11.518200 -11.981600 -36.263300  -0.002367  -0.008821 -26.470400   0.002530  -0.007808 -31.888200   1.237850  -2.229210 -50.422500   0.031480  -0.113709 -33.395100   0.050503  -0.057206 -30.617400   1.238480  -2.200880 -47.709400   0.000903  -0.006113 -31.439900  -0.002072   0.007580 -35.695900  -0.970792   1.620020 -53.563900  -0.001391  -0.016133 -35.673500   0.007385  -0.008735   6.019130   0.790768   6.642670  66.884600  21.938600  14.354700   3.553760  -8.365390  13.790500 -20.824400 -13.461200   1.578660 -36.190900  28.460200  58.651500  33.364600   0.001800  -0.001108  11.682300   0.002119   0.007380  32.924500   2.127880   3.279370  26.990300  -0.003861   0.001056  18.893200  -0.001458   0.007931  28.667600  -2.021590  -3.693490  39.876700   0.003315   0.002016  26.557900   0.002337  -0.002000  28.599900  -3.509270  -6.406890  42.835800   0.003022  -0.000088  28.528700   0.002073  -0.000236  41.740000  -4.875430  -5.442440  62.962100  -0.000071   0.001080  41.932800   0.000745   0.005322   1.954970  19.781900   1.286450   0.437008   5.638140   6.984750  -6.251610  -5.128980   3.070810   0.000000   0.000000  -0.000000   3.470440  14.986700 -10.049900  -1.757240  17.068200 -12.081200  -9.224920  -5.156120  -4.245950  -0.000000   0.000000   0.000000
 -1.493130  89.760700  -0.522053  -0.220366 -21.852200   4.066290  -1.620280  11.183000   0.610901  -3.466980  22.342800   1.598340   8.004880   2.751630  -0.364600  13.229200   5.245240 -44.257600   3.445740   0.220078   5.888410 -46.795900  28.974000 -77.208400   0.345067  -3.875710 -127.357000  47.972800   9.398050 -21.031400  36.030400  26.176900 -63.774800 -28.859000  -0.014955  -0.008311  -9.429490  -0.008130  -0.017975 -38.558400  11.391200 -13.820500 -32.686100  -0.007821   0.000030 -23.226800  -0.002626  -0.001913 -29.494500   2.096890  -3.735890 -45.316200   0.026107  -0.111595 -29.977400   0.048555  -0.056752 -28.570900   2.093210  -3.721190 -43.021400   0.000257  -0.004314 -28.293000  -0.004012   0.007539 -30.951500  -0.061732   0.372408 -46.416800  -0.007483   0.005051 -30.913600  -0.000958   0.003045   6.049320   0.639178   6.665760  66.861900  22.018300  14.332200   3.452410  -8.428310  13.799300 -20.984800 -13.706600   1.574220 -36.166400  28.462100  58.566600  33.438200   0.001804  -0.001107  11.719100   0.002131   0.007418  32.963200   2.038980   3.137460  27.018100  -0.003849   0.001096  18.912700  -0.001494   0.007936  28.663500  -2.116750  -3.867250  39.945600   0.003297   0.002031  26.603800   0.002339  -0.001982  28.590400  -3.593850  -6.562230  42.881700   0.002941  -0.000091  28.559300   0.002061  -0.000236  41.765600  -4.996620  -5.571340  63.015600  -0.000069   0.001081  41.968400   0.000744   0.005293   2.036120  19.967600   1.439430   0.333553   5.537280   7.538090  -6.129280  -5.244440   3.638690   0.000000   0.000000   0.000000   3.537980  14.780500  -9.970200  -1.929570  17.195800 -11.492900  -9.229670  -5.166430  -3.576540   0.000000   0.000000   0.000000
 -1.453200  89.761200  -0.563181  -0.813437 -21.841400   2.660390  -1.533020  11.242500   0.383552  -3.241110  22.469800   1.113930   8.151280   2.591410  -0.336230  13.462000   4.925040 -45.128200   3.464030   0.310606   5.771910 -47.139000  29.020400 -76.917200   0.219077  -3.635600 -127.154000  46.949000  10.660200 -20.285100  36.040100  24.686800 -63.088900 -27.640900  -0.017305  -0.008988  -8.820430  -0.008736  -0.018133 -36.733700  11.305900 -14.646400 -31.252400  -0.008600   0.012292 -21.808800  -0.005591   0.006301 -28.319500   2.544780  -4.627410 -40.378300   0.012930  -0.096796 -26.892000   0.036752  -0.053578 -28.222200   2.533470  -4.629810 -39.662900  -0.001176  -0.000485 -26.415500  -0.004706   0.007397 -28.949800   0.488270  -0.858426 -43.400000  -0.008383   0.031236 -28.904400  -0.012449   0.016903   6.067830   0.503341   6.721320  66.840700  22.072500  14.306100   3.351880  -8.520530  13.803600 -21.064800 -13.998300   1.557160 -36.139500  28.469100  58.511700  33.512200   0.001808  -0.001105  11.756100   0.002144   0.007458  33.013100   1.955230   3.003450  27.055000  -0.003835   0.001135  18.938500  -0.001531   0.007940  28.659600  -2.206890  -4.031720  39.995700   0.003281   0.002047  26.637200   0.002341  -0.001964  28.581600  -3.672080  -6.705810  42.945200   0.002862  -0.000094  28.601600   0.002050  -0.000236  41.792700  -5.108990  -5.690030  63.074500  -0.000067   0.001082  42.007600   0.000743   0.005265   2.135270  20.135800   1.614420   0.229020   5.442990   8.100680  -6.014180  -5.359980   4.156870  -0.000000   0.000000  -0.000000   3.634390  14.595700  -9.866520  -2.102000  17.264000 -10.915000  -9.220860  -5.170620  -2.928830  -0.000000   0.000000   0.000000
 -1.421490  89.761600  -0.596226  -1.409840 -21.783700   1.274590  -1.436050  11.286100   0.171702  -2.997490  22.563900   0.658297   8.311010   2.431960  -0.339056  13.717300   4.613440 -45.844100   3.498570   0.403640   5.655120 -47.528600  29.044800 -76.628700   0.101418  -3.245320 -126.946000  46.245000  11.347800 -19.611700  36.259100  23.433800 -62.806900 -26.463700  -0.019593  -0.008728  -8.231840  -0.009469  -0.012934 -36.867300  11.320100 -14.588700 -31.359800  -0.007905   0.017090 -21.909100  -0.008148   0.009679 -27.838600   2.508910  -4.703960 -38.002200  -0.012667  -0.016889 -25.384900   0.006437  -0.015673 -28.232800   2.535400  -4.684530 -39.103300  -0.005028   0.006408 -26.075900  -0.005472   0.007110 -28.994400   1.142660  -1.935850 -43.517700  -0.008417   0.037069 -28.982800  -0.015489   0.019328   6.062630   0.390228   6.827550  66.871200  22.026900  14.238200   3.215090  -8.562080  13.737400 -21.060100 -14.322800   1.519910 -36.125100  28.500600  58.499800  33.572600   0.001813  -0.001122  11.786300   0.002152   0.007489  33.037200   1.888040   2.898360  27.071300  -0.003820   0.001174  18.949900  -0.001569   0.007942  28.655700  -2.278400  -4.162010  39.995300   0.003264   0.002063  26.636900   0.002344  -0.001947  28.575500  -3.729770  -6.811430  42.966500   0.002785  -0.000091  28.615700   0.002041  -0.000235  41.795500  -5.190080  -5.778770  63.082400  -0.000071   0.001081  42.012800   0.000744   0.005234   2.254750  20.269100   1.817300   0.128821   5.353250   8.649410  -5.906580  -5.475350   4.634730   0.000000   0.000000  -0.000000   3.764650  14.423900  -9.737370  -2.287910  17.252800 -10.311600  -9.195570  -5.128570  -2.342710  -0.000000   0.000000   0.000000
